<svg xmlns="http://www.w3.org/2000/svg" fill="none" viewBox="0 0 404 217"><path fill="#CB9274" d="M52.2 7h2V5h-2v2zM1.8 7V5h-2v2h2zm0 16.2h-2v2h2v-2zm16.44 0h2v-2h-2v2zm0 67.8h-2v2h2v-2zm17.52 0v2h2v-2h-2zm0-67.8v-2h-2v2h2zm16.44 0v2h2v-2h-2zm0-18.2H1.8v4h50.4V5zM-.2 7v16.2h4V7h-4zm2 18.2h16.44v-4H1.8v4zm14.44-2V91h4V23.2h-4zm2 69.8h17.52v-4H18.24v4zm19.52-2V23.2h-4V91h4zm-2-65.8H52.2v-4H35.76v4zm18.44-2V7h-4v16.2h4zm29.132 51.6h-2v2h2v-2zm0-18.6v-2h-2v2h2zm23.88 0v2h2v-2h-2zm0-15.6h2v-2h-2v2zm-23.88 0h-2v2h2v-2zm0-17.4v-2h-2v2h2zm26.28 0v2h2v-2h-2zm0-16.2h2V5h-2v2zm-43.32 0V5h-2v2h2zm0 84h-2v2h2v-2zm44.52 0v2h2v-2h-2zm0-16.2h2v-2h-2v2zm-25.48 0V56.2h-4v18.6h4zm-2-16.6h23.88v-4h-23.88v4zm25.88-2V40.6h-4v15.6h4zm-2-17.6h-23.88v4h23.88v-4zm-21.88 2V23.2h-4v17.4h4zm-2-15.4h26.28v-4h-26.28v4zm28.28-2V7h-4v16.2h4zm-2-18.2h-43.32v4h43.32V5zm-45.32 2v84h4V7h-4zm2 86h44.52v-4h-44.52v4zm46.52-2V74.8h-4V91h4zm-2-18.2h-27.48v4h27.48v-4zm68.252-7.48 2 .04.042-2.04h-2.042v2zm-17.04 0v-2h-1.875l-.12 1.871 1.995.129zm-.24-32.64-1.996.125.117 1.875h1.879v-2zm17.04 0v2h2.069l-.07-2.067-1.999.067zm-26.88 61.76c8.886 0 16.144-2.478 21.225-7.526 5.077-5.045 7.708-12.383 7.895-21.553l-3.999-.082c-.173 8.47-2.583 14.691-6.715 18.797-4.129 4.102-10.251 6.364-18.406 6.364v4zm27.12-31.12h-17.04v4h17.04v-4zm-19.035 1.871c-.228 3.53-1.037 5.606-2.195 6.817-1.113 1.164-2.883 1.872-5.89 1.872v4c3.593 0 6.624-.852 8.781-3.108 2.112-2.209 3.043-5.413 3.295-9.323l-3.991-.258zm-8.085 8.689c-2.187 0-3.58-.672-4.493-1.823-.981-1.237-1.667-3.351-1.667-6.737h-4c0 3.814.755 6.98 2.533 9.223 1.848 2.33 4.535 3.337 7.627 3.337v-4zm-6.16-8.56V32.68h-4v32.64h4zm0-32.64c0-3.502.714-5.681 1.716-6.952.934-1.185 2.331-1.848 4.444-1.848v-4c-3.046 0-5.729 1.017-7.585 3.372-1.789 2.269-2.575 5.49-2.575 9.428h4zm6.16-8.8c2.937 0 4.628.702 5.694 1.87 1.13 1.235 1.92 3.377 2.15 7.055l3.992-.25c-.25-4.002-1.139-7.26-3.189-9.504-2.114-2.313-5.103-3.171-8.647-3.171v4zm9.84 10.8h17.04v-4h-17.04v4zm19.039-2.068c-.311-9.2-2.902-16.584-7.873-21.67-4.988-5.103-12.103-7.622-20.886-7.622v4c8.018 0 13.983 2.282 18.025 6.418 4.059 4.154 6.447 10.45 6.737 19.01l3.997-.135zM152.064 3.32c-8.608 0-15.697 2.522-20.624 7.632-4.918 5.1-7.416 12.501-7.416 21.728h4c0-8.532 2.302-14.81 6.295-18.952 3.983-4.13 9.914-6.408 17.745-6.408v-4zm-28.04 29.36v32.64h4V32.68h-4zm0 32.64c0 9.172 2.5 16.514 7.405 21.568 4.913 5.063 11.97 7.553 20.515 7.553v-4c-7.774 0-13.677-2.25-17.644-6.338-3.976-4.096-6.276-10.313-6.276-18.782h-4zM229.334 7V5h-2v2h2zm0 33.6v2h2v-2h-2zm-17.28 0h-2v2h2v-2zm0-33.6h2V5h-2v2zm-17.16 0V5h-2v2h2zm0 84h-2v2h2v-2zm17.16 0v2h2v-2h-2zm0-34.2v-2h-2v2h2zm17.28 0h2v-2h-2v2zm0 34.2h-2v2h2v-2zm17.16 0v2h2v-2h-2zm0-84h2V5h-2v2zm-19.16 0v33.6h4V7h-4zm2 31.6h-17.28v4h17.28v-4zm-15.28 2V7h-4v33.6h4zm-2-35.6h-17.16v4h17.16V5zm-19.16 2v84h4V7h-4zm2 86h17.16v-4h-17.16v4zm19.16-2V56.8h-4V91h4zm-2-32.2h17.28v-4h-17.28v4zm15.28-2V91h4V56.8h-4zm2 36.2h17.16v-4h-17.16v4zm19.16-2V7h-4v84h4zm-2-86h-17.16v4h17.16V5zm57.565 2V5h-2v2h2zm2.4 52.2 1.415 1.415.701-.702-.134-.983-1.982.27zm-.36.36-1.865.721 1.107 2.866 2.173-2.172-1.415-1.415zm-6-16.08 1.866-.72-.016-.041-.017-.04-1.833.801zM284.139 7l1.833-.801-.525-1.199h-1.308v2zm-16.8 0V5h-2v2h2zm0 84h-2v2h2v-2zm16.8 0v2h2v-2h-2zm-2.16-52.68-1.414-1.414-.691.692.121.97 1.984-.248zm.36-.36 1.877-.69-1.08-2.934-2.211 2.21 1.414 1.414zm7.56 20.52-1.876.692.02.054.023.053 1.833-.799zM304.059 91l-1.833.799.523 1.201h1.31v-2zm16.8 0v2h2v-2h-2zm0-84h2V5h-2v2zm-18.8 0v19.44h4V7h-4zm0 19.44c0 7.9.968 22.39 2.419 33.03l3.963-.54c-1.429-10.48-2.382-24.789-2.382-32.49h-4zm2.986 31.346-.36.36 2.829 2.829.36-.36-2.829-2.829zm2.92 1.054a495.183 495.183 0 0 1-2.988-8.008c-.989-2.697-1.985-5.413-3.012-8.072l-3.731 1.441a495.183 495.183 0 0 1 2.988 8.008c.989 2.697 1.985 5.414 3.012 8.072l3.731-1.441zm-6.033-16.161-15.96-36.48-3.665 1.603 15.96 36.48 3.665-1.603zM284.139 5h-16.8v4h16.8V5zm-18.8 2v84h4V7h-4zm2 86h16.8v-4h-16.8v4zm18.8-2V73.96h-4V91h4zm0-17.04c0-9.433-.843-25.236-2.175-35.888l-3.969.496c1.308 10.468 2.144 26.104 2.144 35.392h4zm-2.745-34.226.36-.36-2.829-2.829-.36.36 2.829 2.829zm-2.931-1.083 7.56 20.52 3.753-1.383-7.56-20.52-3.753 1.383zm7.603 20.627 14.16 32.52 3.667-1.597-14.16-32.52-3.667 1.597zM304.059 93h16.8v-4h-16.8v4zm18.8-2V7h-4v84h4zm-2-86h-16.8v4h16.8V5zm45.758 89.44c8.947 0 16.326-2.815 21.459-8.212 5.121-5.383 7.781-13.098 7.781-22.468h-4c0 8.63-2.44 15.255-6.679 19.712-4.227 4.444-10.468 6.969-18.561 6.969v4zm29.24-30.68V34.24h-4v29.52h4zm0-29.52c0-9.37-2.66-17.085-7.781-22.468-5.133-5.397-12.512-8.212-21.459-8.212v4c8.093 0 14.334 2.526 18.561 6.969 4.239 4.456 6.679 11.082 6.679 19.712h4zm-29.24-30.68c-8.947 0-16.326 2.815-21.459 8.212-5.121 5.383-7.781 13.098-7.781 22.468h4c0-8.63 2.44-15.255 6.679-19.712 4.227-4.444 10.468-6.969 18.561-6.969v-4zm-29.24 30.68v29.52h4V34.24h-4zm0 29.52c0 9.37 2.66 17.085 7.781 22.468 5.133 5.397 12.512 8.212 21.459 8.212v-4c-8.093 0-14.334-2.525-18.561-6.969-4.239-4.456-6.679-11.082-6.679-19.712h-4zm29.24 10.12c-2.704 0-4.465-.867-5.613-2.327-1.215-1.544-1.987-4.057-1.987-7.793h-4c0 4.184.848 7.731 2.843 10.267 2.062 2.62 5.101 3.853 8.757 3.853v-4zm-7.6-10.12V34.24h-4v29.52h4zm0-29.52c0-3.736.772-6.249 1.987-7.793 1.148-1.46 2.909-2.327 5.613-2.327v-4c-3.656 0-6.695 1.233-8.757 3.853-1.995 2.536-2.843 6.083-2.843 10.267h4zm7.6-10.12c2.704 0 4.465.867 5.613 2.327 1.215 1.544 1.987 4.057 1.987 7.793h4c0-4.184-.848-7.731-2.843-10.267-2.062-2.62-5.101-3.853-8.757-3.853v4zm7.6 10.12v29.52h4V34.24h-4zm0 29.52c0 3.736-.772 6.249-1.987 7.793-1.148 1.46-2.909 2.327-5.613 2.327v4c3.656 0 6.695-1.233 8.757-3.853 1.995-2.536 2.843-6.083 2.843-10.267h-4zM48.957 143.2v2h2v-2h-2zm0-16.2h2v-2h-2v2zm-41.52 0v-2h-2v2h2zm0 84h-2v2h2v-2zm17.04 0v2h2v-2h-2zm0-34.8v-2h-2v2h2zm22.08 0v2h2v-2h-2zm0-15.6h2v-2h-2v2zm-22.08 0h-2v2h2v-2zm0-17.4v-2h-2v2h2zm26.48 0V127h-4v16.2h4zm-2-18.2H7.437v4h41.52v-4zm-43.52 2v84h4v-84h-4zm2 86h17.04v-4H7.437v4zm19.04-2v-34.8h-4V211h4zm-2-32.8h22.08v-4h-22.08v4zm24.08-2v-15.6h-4v15.6h4zm-2-17.6h-22.08v4h22.08v-4zm-20.08 2v-17.4h-4v17.4h4zm-2-15.4h24.48v-4h-24.48v4zm70.73 65.8-1.962.39.32 1.61h1.642v-2zm17.64 0v2h2.536l-.592-2.467-1.944.467zm-20.16-84 1.945-.467-.368-1.533h-1.577v2zm-18.24 0v-2H72.87l-.368 1.533 1.945.467zm-20.16 84-1.945-.467L51.75 213h2.537v-2zm17.64 0v2h1.642l.32-1.61-1.962-.39zm2.76-13.92v-2h-1.642l-.32 1.611 1.962.39zm17.76 0 1.962-.389-.32-1.61h-1.642v2zm-14.4-16.2-1.961-.392-.479 2.392h2.44v-2zm1.92-9.6-1.961-.392 1.961.392zm3.36-23.04v-2h-1.77l-.215 1.756 1.985.244zm.48 0 1.985-.244-.216-1.756h-1.769v2zm3.36 23.04-1.968.354.003.02.004.018 1.961-.392zm1.92 9.6v2h2.44l-.479-2.392-1.961.392zm6.12 32.12h17.64v-4h-17.64v4zm19.584-2.467-20.16-84-3.89.934 20.16 84 3.89-.934zM92.687 125h-18.24v4h18.24v-4zm-20.185 1.533-20.16 84 3.89.934 20.16-84-3.89-.934zM54.287 213h17.64v-4h-17.64v4zm19.602-1.61 2.76-13.92-3.924-.779-2.76 13.92 3.924.778zm.798-12.31h17.76v-4h-17.76v4zm15.798-1.61 2.76 13.92 3.924-.779-2.76-13.92-3.924.778zm-10.477-16.198 1.92-9.6-3.922-.784-1.92 9.6 3.922.784zm1.92-9.6c1.218-6.087 2.546-16.365 3.384-23.188l-3.97-.488c-.842 6.857-2.154 16.98-3.336 22.892l3.922.784zm1.4-21.432h.48v-4h-.48v4zm-1.506-1.756c.842 6.857 2.287 17.098 3.377 23.15l3.937-.708c-1.071-5.948-2.506-16.107-3.344-22.93l-3.97.488zm3.384 23.188 1.92 9.6 3.922-.784-1.92-9.6-3.922.784zm3.881 7.208h-11.04v4h11.04v-4zm66.017-28.84h-2v2h2v-2zm17.52 0v2h2v-2h-2zm-33.6 36.48h2v-2h-2v2zm-17.52 0v-2h-2v2h2zm26.04 28.16c8.744 0 15.87-2.649 20.825-7.308 4.963-4.666 7.575-11.187 7.575-18.572h-4c0 6.415-2.249 11.834-6.315 15.658-4.075 3.83-10.15 6.222-18.085 6.222v4zm28.4-25.88c0-14.467-9.14-21.888-17.622-27.182-4.373-2.729-8.278-4.744-11.323-7.036-2.99-2.249-4.415-4.258-4.415-6.582h-4c0 4.276 2.745 7.322 6.01 9.78 3.21 2.414 7.645 4.756 11.611 7.232 8.198 5.116 15.74 11.495 15.74 23.788h4zm-33.36-40.8c0-1.437.477-2.42 1.203-3.065.754-.67 2.003-1.175 3.877-1.175v-4c-2.567 0-4.858.696-6.534 2.185-1.704 1.515-2.546 3.652-2.546 6.055h4zm5.08-4.24c2.09 0 3.327.576 4.08 1.41.786.872 1.36 2.376 1.36 4.87h4c0-3.026-.687-5.662-2.39-7.55-1.738-1.926-4.219-2.73-7.05-2.73v4zm7.44 8.28h17.52v-4h-17.52v4zm19.52-2c0-8.146-2.47-14.883-7.206-19.584-4.733-4.7-11.497-7.136-19.634-7.136v4c7.342 0 12.998 2.184 16.815 5.974 3.816 3.79 6.025 9.412 6.025 16.746h4zm-26.84-26.72c-8.145 0-14.79 2.47-19.417 6.83-4.633 4.367-7.063 10.468-7.063 17.37h4c0-5.938 2.07-10.937 5.806-14.46 3.744-3.529 9.338-5.74 16.674-5.74v-4zm-26.48 24.2c0 13.876 9.038 21.207 17.348 26.621 4.277 2.786 8.156 4.954 11.13 7.38 2.921 2.382 4.402 4.586 4.402 7.16h4c0-4.388-2.63-7.614-5.874-10.26-3.19-2.603-7.532-5.063-11.475-7.632-8.13-5.296-15.53-11.585-15.53-23.269h-4zm32.88 41.16c0 1.656-.535 2.957-1.468 3.85-.937.896-2.494 1.59-4.932 1.59v4c3.201 0 5.844-.926 7.697-2.7 1.857-1.777 2.703-4.196 2.703-6.74h-4zm-6.4 5.44c-2.36 0-3.952-.624-4.97-1.673-1.029-1.059-1.79-2.876-1.79-5.927h-4c0 3.67.918 6.652 2.92 8.713 2.011 2.071 4.8 2.887 7.84 2.887v-4zm-8.76-9.6h-17.52v4h17.52v-4zm-19.52 2c0 8.86 2.648 15.966 7.635 20.853 4.98 4.881 12.044 7.307 20.405 7.307v-4c-7.6 0-13.555-2.194-17.606-6.163-4.043-3.963-6.434-9.937-6.434-17.997h-4zM223.224 211l-1.96.39.318 1.61h1.642v-2zm17.64 0v2h2.537l-.592-2.467-1.945.467zm-20.16-84 1.945-.467-.368-1.533h-1.577v2zm-18.24 0v-2h-1.576l-.368 1.533 1.944.467zm-20.16 84-1.944-.467-.592 2.467h2.536v-2zm17.64 0v2h1.643l.32-1.61-1.963-.39zm2.76-13.92v-2h-1.642l-.32 1.611 1.962.39zm17.76 0 1.962-.389-.319-1.61h-1.643v2zm-14.4-16.2-1.96-.392-.479 2.392h2.44v-2zm1.92-9.6-1.96-.392 1.96.392zm3.36-23.04v-2h-1.769l-.216 1.756 1.985.244zm.48 0 1.985-.244-.215-1.756h-1.77v2zm3.36 23.04-1.968.354.003.02.004.018 1.961-.392zm1.92 9.6v2h2.44l-.479-2.392-1.96.392zm6.12 32.12h17.64v-4h-17.64v4zm19.585-2.467-20.16-84-3.889.934 20.16 84 3.89-.934zM220.704 125h-18.24v4h18.24v-4zm-20.184 1.533-20.16 84 3.89.934 20.16-84-3.89-.934zM182.304 213h17.64v-4h-17.64v4zm19.602-1.61 2.76-13.92-3.924-.779-2.759 13.92 3.923.778zm.798-12.31h17.76v-4h-17.76v4zm15.8-1.61 2.76 13.92 3.922-.779-2.76-13.92-3.923.778zm-10.479-16.198 1.92-9.6-3.922-.784-1.92 9.6 3.922.784zm1.92-9.6c1.218-6.087 2.546-16.365 3.384-23.188l-3.97-.488c-.842 6.857-2.153 16.98-3.336 22.892l3.922.784zm1.4-21.432h.48v-4h-.48v4zm-1.506-1.756c.842 6.857 2.288 17.098 3.377 23.15l3.937-.708c-1.07-5.948-2.506-16.107-3.344-22.93l-3.97.488zm3.384 23.188 1.92 9.6 3.922-.784-1.92-9.6-3.922.784zm3.881 7.208h-11.04v4h11.04v-4zM254.681 211h-2v2h2v-2zm0-84v-2h-2v2h2zm17.04 67.8h-2v2h2v-2zm0-51.6v-2h-2v2h2zm-17.04 69.8h23.28v-4h-23.28v4zm23.28 0c8.83 0 16.066-2.787 21.081-8.149 4.998-5.343 7.56-12.996 7.56-22.29h-4c0 8.584-2.36 15.151-6.48 19.558-4.106 4.388-10.19 6.881-18.16 6.881v4zm28.64-30.44v-27.72h-4v27.72h4zm0-27.72c0-9.132-2.6-16.643-7.656-21.879-5.064-5.246-12.352-7.96-21.224-7.96v4c8.05 0 14.2 2.444 18.346 6.738 4.155 4.304 6.534 10.713 6.534 19.101h4zM277.721 125h-23.04v4h23.04v-4zm-25.04 2v84h4v-84h-4zm21.04 67.8v-51.6h-4v51.6h4zm-2-49.6h6.24v-4h-6.24v4zm6.24 0c2.6 0 4.306.818 5.42 2.197 1.173 1.453 1.94 3.84 1.94 7.443h4c0-4.076-.853-7.51-2.829-9.957-2.037-2.52-5.01-3.683-8.53-3.683v4zm7.36 9.64v27.72h4v-27.72h-4zm0 27.72c0 3.8-.773 6.354-1.972 7.918-1.129 1.473-2.83 2.322-5.388 2.322v4c3.562 0 6.542-1.25 8.563-3.888 1.951-2.546 2.797-6.112 2.797-10.352h-4zm-7.36 10.24h-6.24v4h6.24v-4zm62.104 2h-2v2h2v-2zm0-18.6v-2h-2v2h2zm23.88 0v2h2v-2h-2zm0-15.6h2v-2h-2v2zm-23.88 0h-2v2h2v-2zm0-17.4v-2h-2v2h2zm26.28 0v2h2v-2h-2zm0-16.2h2v-2h-2v2zm-43.32 0v-2h-2v2h2zm0 84h-2v2h2v-2zm44.52 0v2h2v-2h-2zm0-16.2h2v-2h-2v2zm-25.48 0v-18.6h-4v18.6h4zm-2-16.6h23.88v-4h-23.88v4zm25.88-2v-15.6h-4v15.6h4zm-2-17.6h-23.88v4h23.88v-4zm-21.88 2v-17.4h-4v17.4h4zm-2-15.4h26.28v-4h-26.28v4zm28.28-2V127h-4v16.2h4zm-2-18.2h-43.32v4h43.32v-4zm-45.32 2v84h4v-84h-4zm2 86h44.52v-4h-44.52v4zm46.52-2v-16.2h-4V211h4zm-2-18.2h-27.48v4h27.48v-4z"/></svg>