<svg xmlns="http://www.w3.org/2000/svg" width="329" height="153" fill="none"><path fill="#000" d="M42.864 71.687c3.132-1.465 5.798-2.093 7.998-1.882 2.616.28 3.925 1.792 3.926 4.54-.03 5.316-3.797 13.071-11.302 23.266-7.584 10.356-13.99 16.243-19.218 17.661-3.556.959-5.652-.553-6.288-4.536-.503-3.275-.008-7.965 1.487-14.068a98.751 98.751 0 0 1 4.983-15.052c1.944-4.685 3.344-7.181 4.202-7.489.717-.28 1.155.004 1.314.853.053.283.03.654-.067 1.111l-.103.624-.123.517c-.088.31-.271.51-.547.597-.242.082-.488.037-.74-.136-1.204 2.57-2.522 5.801-3.954 9.695-1.66 4.633-2.94 8.846-3.842 12.641-2.45 10.384-1.378 14.945 3.22 13.681 4.846-1.31 10.889-7.184 18.128-17.622 6.964-9.947 10.55-17.211 10.754-21.79.058-1.843-.993-2.763-3.154-2.762-1.716.028-3.72.569-6.014 1.62-1.555.694-3.308 1.7-5.26 3.018-1.592 2.642-3.107 4.628-4.542 5.96-1.558 1.463-2.795 1.896-3.713 1.299-.917-.598-.518-1.79 1.2-3.576 1.437-1.514 3.505-3.184 6.204-5.007 2.294-3.982 3.861-7.938 4.7-11.868.944-4.352.598-7.18-1.039-8.485-1.293-1.04-3.32-1.21-6.083-.51-2.621.674-5.5 2.019-8.64 4.035-7.294 4.661-12.443 10.222-15.446 16.68-1.945 4.284-2.155 7.564-.63 9.842 1.373 2.05 3.92 3.039 7.642 2.965.544-.029.83.23.859.773-.007.55-.282.84-.826.869-3.906.072-6.858-1.024-8.856-3.287-2.472-2.833-2.49-6.84-.053-12.021 3.264-7.02 8.794-12.89 16.591-17.61 3.422-2.068 6.58-3.392 9.475-3.97 3.072-.612 5.388-.277 6.946 1.007 1.853 1.484 2.45 4.284 1.792 8.4-.538 3.58-1.882 7.457-4.03 11.631a105.03 105.03 0 0 0 1.59-.901c.404-.186.89-.424 1.459-.713Zm-11.01 9.862c1.011-.666 1.958-1.575 2.84-2.73-1.198 1.03-2.145 1.94-2.84 2.73Zm39.495 6.946c.278.314.245.723-.1 1.227-.467.637-1.272 1.52-2.416 2.65l-.375.345-.418.408c-.308.314-.604.589-.89.825a17.45 17.45 0 0 1-2.276 1.635c-1.999 1.253-4.065 1.86-6.196 1.82-1.511-.048-2.694-.595-3.55-1.644-.722-.927-1.003-1.936-.841-3.029-.451.524-.816.922-1.095 1.194-.093.09-.246.156-.458.196a.941.941 0 0 1-.527-.176c-.133-.122-.202-.292-.206-.511-.004-.219.037-.392.123-.517.086-.127.248-.34.484-.64l.173-.253.183-.199c.143-.21.29-.402.441-.577.093-.09.35-.377.773-.859.122-.132.315-.37.58-.713l.73-.796c1.275-1.41 2.002-2.224 2.181-2.44a1.61 1.61 0 0 1 .183-.2l.182-.198.13-.19c.3-.349.576-.638.826-.868.7-.754 1.147-1.112 1.337-1.075 1.608-1.582 3.102-1.917 4.482-1.003.672.46.74 1.015.201 1.665-.595.734-1.775 1.083-3.54 1.047-.092.09-.331.282-.716.574a2.924 2.924 0 0 0-.524.428c-.221.188-.428.354-.62.5-1.058 1.004-1.831 2.156-2.32 3.456-.563 1.497-.634 2.682-.214 3.556.4.768 1.172 1.172 2.315 1.215 2.477.122 5.148-1.165 8.012-3.862.786-.697 1.673-1.632 2.662-2.806a.868.868 0 0 1 .65-.341.719.719 0 0 1 .633.156Zm17.208-3.222c.279.315.246.724-.1 1.228-.466.637-1.271 1.52-2.415 2.65l-.375.344-.418.408c-.308.314-.604.59-.89.826a17.45 17.45 0 0 1-2.276 1.635c-2 1.253-4.065 1.86-6.197 1.819-1.51-.047-2.693-.595-3.548-1.643-.723-.927-1.004-1.937-.842-3.029-.451.524-.816.922-1.095 1.194-.093.09-.246.156-.458.195a.94.94 0 0 1-.527-.175c-.133-.122-.202-.292-.206-.511-.004-.22.037-.392.123-.518s.248-.34.484-.64l.173-.252.183-.199c.143-.21.29-.402.44-.577.065-.049.25-.23.558-.544l.193-.146.225-.262.515-.48a12.252 12.252 0 0 1 3.418-4.926c1.657-1.518 3.321-2.215 4.993-2.088.74.044 1.302.306 1.685.784.877.97-.004 2.326-2.645 4.066a22.37 22.37 0 0 1-1.58.954l-.79.478-.746.414c-1.159.657-1.845 1.097-2.06 1.32-.498 1.448-.508 2.567-.03 3.357.435.76 1.203 1.148 2.304 1.162 2.506.08 5.159-1.204 7.96-3.853.785-.696 1.672-1.631 2.66-2.805a.868.868 0 0 1 .65-.342.719.719 0 0 1 .634.156Zm-7.8-3.813-.286-.057c-.106.02-.233.026-.381.017a6.343 6.343 0 0 0-1.095.314c-1.044.489-2.111 1.44-3.202 2.852l-.345.504c.86-.49 1.714-1.016 2.561-1.578a29.49 29.49 0 0 0 2.694-2.042l.053-.01Zm18.694 1.774c.279.314.246.724-.1 1.228-.466.636-1.272 1.52-2.415 2.65-1.56 1.646-2.966 2.844-4.218 3.59-1.55.913-2.773 1.032-3.669.358-1.056-.755-1.134-2.443-.234-5.066-.566.692-1.02 1.199-1.363 1.52-.093.09-.246.155-.458.195a.942.942 0 0 1-.528-.176c-.132-.122-.2-.292-.205-.511.002-.184.043-.356.123-.518.086-.126.384-.493.892-1.1l.71-.903.883-1.154a90.855 90.855 0 0 0 2.828-4.265c.252-.413.6-.515 1.042-.305.413.252.532.596.358 1.032l-.12.242a3.538 3.538 0 0 1-.143.411c-.14.43-.282.84-.428 1.234a56.487 56.487 0 0 0-1.099 3.228c-.983 2.967-1.284 4.488-.904 4.564.79.108 1.923-.488 3.401-1.79a33.79 33.79 0 0 0 4.364-4.278.868.868 0 0 1 .65-.342.72.72 0 0 1 .633.156Zm20.011-3.745c.314.307.298.713-.047 1.217-.179.217-.344.412-.494.587l-.538.65c-.451.524-.912.995-1.383 1.413-.686.64-1.888 1.653-3.607 3.037l-1.059.802-1.091.919-2.14 1.774-1.372 4.707c-.54 2.005-.979 3.571-1.318 4.697-1.06 3.531-2.055 6.336-2.985 8.414-2.476 5.555-5.522 8.066-9.138 7.534-1.91-.228-3.018-1.449-3.322-3.663-.336-3.16 1.3-6.946 4.906-11.357 2.595-3.159 6.364-6.794 11.308-10.906.443-1.548.793-2.712 1.05-3.493-1.721 1.567-3.384 2.373-4.987 2.417-1.426.01-2.429-.553-3.008-1.69-.31-.674-.405-1.48-.288-2.418a9.41 9.41 0 0 1-1.085 1.247c-.128.097-.281.162-.458.196a.94.94 0 0 1-.527-.176.585.585 0 0 1-.259-.501.94.94 0 0 1 .176-.528c.086-.126.248-.34.485-.64l.172-.252.183-.199c.144-.21.29-.402.441-.577.064-.049.143-.118.236-.209.086-.126.19-.255.311-.388.337-.356.641-.688.913-.995.83-.85 1.373-1.374 1.629-1.568 1.819-1.44 3.486-2.41 5.003-2.915 1.418-.448 2.699-.651 3.842-.609.551.007.808.307.773.9l.142-.412c.332-.575.8-.717 1.404-.427.568.296.728.76.48 1.393l-.63 1.327a41.32 41.32 0 0 1-.661 1.167c-.916 2.15-1.772 4.525-2.566 7.128 3.245-2.622 5.039-4.093 5.382-4.414a27.932 27.932 0 0 0 2.843-3.004.95.95 0 0 1 .704-.352c.247-.046.441.01.58.166Zm-23.828 34.126c2.52-.435 4.674-2.816 6.464-7.143.713-1.672 1.457-3.862 2.232-6.57a189.77 189.77 0 0 0 1.009-3.706l1.033-3.874c-4.705 4.214-8.167 7.828-10.386 10.844-2.993 3.967-3.988 7.065-2.985 9.294.446 1.015 1.324 1.4 2.633 1.155Zm9.453-27.865c.989-.588 2.046-1.591 3.172-3.01a33.811 33.811 0 0 0 2.482-3.762l.707-1.505-.202.092-.212.04a8.296 8.296 0 0 0-1.858.348c-1.955.512-3.607 1.371-4.957 2.576-1.157 1.059-1.919 2.172-2.286 3.34-.346 1.09-.239 1.857.321 2.302.601.473 1.546.333 2.833-.42Zm33.965-9.928c.314.307.298.713-.047 1.217-2.268 2.952-4.587 4.942-6.958 5.972-2.429 1.114-3.636.534-3.622-1.74-1.447 1.663-2.918 2.708-4.413 3.134-1.636.453-2.863.261-3.678-.575-.732-.778-.979-1.904-.742-3.377-.445.56-.824.978-1.139 1.257-.128.097-.28.163-.457.196a.942.942 0 0 1-.528-.176.583.583 0 0 1-.258-.501.94.94 0 0 1 .176-.528c.086-.126.247-.34.484-.64l.173-.252.182-.199c.144-.21.291-.402.442-.577.064-.049.142-.118.235-.209.086-.126.19-.255.312-.388.336-.356.64-.687.913-.995.829-.85 1.372-1.374 1.629-1.568 1.719-1.384 3.283-2.318 4.694-2.802a13.428 13.428 0 0 1 4.087-.765c.509-.022.792.218.849.72.029.544-.208.845-.71.902-2.468.316-4.761 1.368-6.88 3.156-1.387 1.395-2.162 2.639-2.324 3.731-.146.98.218 1.553 1.091 1.719.909.16 1.994-.209 3.255-1.104 1.482-1.083 2.861-2.715 4.138-4.895a31.69 31.69 0 0 1 1.845-3.641c.288-.42.656-.508 1.105-.262.413.252.515.6.305 1.042l-.033.116-.034.116c-.296.568-.713 1.47-1.251 2.706-.633 1.51-1.103 2.716-1.411 3.616-.434 1.4-.097 1.83 1.011 1.294.441-.193.949-.508 1.527-.945.449-.34.894-.699 1.337-1.075a17.702 17.702 0 0 0 1.951-1.903c.279-.272.554-.562.826-.87.215-.222.426-.463.634-.722a.868.868 0 0 1 .65-.342.72.72 0 0 1 .634.157Zm46.234-8.655c.314.307.299.713-.046 1.217l-.365.398-.409.461c-.329.392-.63.74-.902 1.048l-.322.335-.365.398-.793.753a16.583 16.583 0 0 1-2.021 1.532c-1.765 1.136-3.585 1.587-5.46 1.352-1.551 1.498-2.922 2.195-4.114 2.088-.635-.064-1.122-.32-1.463-.77-.298-.42-.37-.901-.215-1.443.376-1.316 1.806-1.895 4.29-1.737.289-.017.642.008 1.058.077 1.261-1.482 2.146-3.112 2.655-4.892.509-1.78.297-2.62-.636-2.518-2.838.494-5.72 3.488-8.647 8.98-1.358 6.444-2.595 11.675-3.71 15.693-1.552 5.6-2.761 8.537-3.625 8.81l-.319.059c-.705-.051-.821-1.843-.347-5.374 1.272-8.662 3.542-15.808 6.81-21.437l.246-1.035.203-.972.033-.116-.02-.106a34.201 34.201 0 0 1-1.593 2.056c-.329.391-.662.765-.999 1.12-.128.098-.28.163-.457.196a.969.969 0 0 1-.581-.166c-.132-.121-.201-.292-.205-.51a1.18 1.18 0 0 1 .123-.518c.086-.126.383-.493.892-1.101l.71-.902.883-1.154c.675-.896 1.418-2.207 2.23-3.934.217-.407.544-.523.979-.348.436.175.602.474.497.896l-.013.222-.066.233c-.025.26-.056.486-.093.676a48.29 48.29 0 0 1-.406 1.944c1.6-2.02 3.21-3.494 4.831-4.42 1.487-.865 2.736-1.135 3.749-.812.978.33 1.5 1.166 1.568 2.508.053 1.455-.509 3.245-1.686 5.37a9.28 9.28 0 0 1-1.026 1.566c2.216-.488 4.261-1.695 6.135-3.62a22.347 22.347 0 0 0 1.729-1.918.947.947 0 0 1 .703-.351c.248-.047.441.009.58.166Zm-24.515 28.102c.892-2.474 2.099-7.077 3.623-13.808-1.906 5.082-3.114 9.684-3.623 13.808Zm10.395-20.185a5.765 5.765 0 0 0 1.257-.62 4.656 4.656 0 0 0-.869.053l-.318.06-.362.122c-.312.095-.49.22-.534.375.042.029.155.044.338.047.184.002.347-.01.488-.037Zm34.13-11.663c.314.308.298.714-.047 1.218-2.268 2.952-4.587 4.942-6.958 5.972-2.429 1.114-3.636.534-3.622-1.74-1.447 1.663-2.918 2.708-4.413 3.134-1.636.453-2.863.261-3.678-.575-.732-.779-.98-1.904-.742-3.377-.445.56-.824.978-1.139 1.257a1.071 1.071 0 0 1-.457.195.942.942 0 0 1-.528-.175.583.583 0 0 1-.258-.501.94.94 0 0 1 .176-.528c.086-.126.247-.34.484-.64l.173-.252.182-.199c.144-.21.291-.402.441-.577.065-.049.143-.118.236-.209.086-.126.19-.255.312-.388.336-.356.64-.688.913-.995.829-.851 1.372-1.374 1.629-1.568 1.718-1.384 3.283-2.318 4.694-2.802a13.428 13.428 0 0 1 4.087-.765c.509-.022.792.218.849.72.029.544-.208.845-.71.902-2.468.316-4.761 1.368-6.881 3.156-1.387 1.395-2.161 2.639-2.323 3.731-.146.98.218 1.553 1.091 1.719.909.16 1.994-.209 3.255-1.104 1.482-1.083 2.861-2.715 4.138-4.895a31.53 31.53 0 0 1 1.845-3.642c.288-.42.656-.507 1.105-.261.413.252.515.6.305 1.041l-.034.117-.033.116c-.296.568-.713 1.47-1.251 2.706-.633 1.51-1.103 2.715-1.411 3.615-.434 1.4-.097 1.832 1.011 1.294.44-.192.949-.507 1.527-.944.449-.34.894-.7 1.337-1.075a17.695 17.695 0 0 0 1.951-1.903c.278-.272.554-.562.826-.87.215-.222.426-.463.634-.722a.868.868 0 0 1 .65-.342.72.72 0 0 1 .634.157Zm19.908-3.726c.314.307.298.713-.047 1.217-.179.217-.344.413-.495.587l-.537.65c-.451.524-.913.995-1.384 1.413-.686.641-1.888 1.654-3.607 3.038l-1.058.802-1.092.918-2.14 1.775-1.371 4.706c-.54 2.006-.98 3.571-1.319 4.697-1.06 3.531-2.055 6.336-2.984 8.415-2.477 5.554-5.522 8.066-9.138 7.534-1.911-.229-3.018-1.45-3.323-3.663-.335-3.16 1.3-6.946 4.906-11.357 2.595-3.16 6.365-6.795 11.309-10.907.443-1.548.792-2.712 1.049-3.493-1.721 1.568-3.383 2.373-4.986 2.417-1.427.01-2.43-.552-3.009-1.69-.309-.674-.405-1.48-.287-2.418-.381.511-.743.927-1.086 1.247-.128.098-.28.163-.457.196a.942.942 0 0 1-.528-.176.584.584 0 0 1-.258-.501.94.94 0 0 1 .176-.527c.086-.126.247-.34.484-.64l.173-.253.182-.199c.144-.21.291-.402.442-.576.064-.05.142-.119.235-.21.086-.126.19-.255.312-.388.336-.355.64-.687.913-.994.829-.851 1.372-1.374 1.629-1.569 1.818-1.439 3.486-2.41 5.003-2.914 1.418-.449 2.698-.652 3.841-.61.551.007.809.307.773.9l.143-.411c.332-.575.8-.718 1.403-.428.568.297.729.76.481 1.393l-.631 1.327c-.246.449-.466.838-.66 1.167-.917 2.15-1.772 4.526-2.567 7.128 3.245-2.621 5.039-4.093 5.382-4.413a28.037 28.037 0 0 0 2.844-3.005.947.947 0 0 1 .703-.351c.248-.047.441.009.581.166Zm-23.828 34.127c2.519-.435 4.674-2.816 6.464-7.144.713-1.671 1.456-3.861 2.231-6.57.288-1.006.624-2.241 1.01-3.705l1.032-3.875c-4.705 4.214-8.167 7.829-10.386 10.845-2.993 3.966-3.988 7.064-2.985 9.293.447 1.016 1.325 1.4 2.634 1.156Zm9.452-27.865c.989-.588 2.046-1.592 3.172-3.011a33.821 33.821 0 0 0 2.483-3.761l.707-1.506-.202.093-.213.04a8.301 8.301 0 0 0-1.858.347c-1.955.513-3.607 1.371-4.956 2.576-1.157 1.06-1.919 2.172-2.287 3.34-.345 1.09-.238 1.858.321 2.302.602.474 1.546.334 2.833-.42Zm15.918-3.035c.053.283.12.546.202.787.152.227.569.204 1.25-.07.235-.117.484-.255.747-.414.157-.14.339-.338.547-.597.115-.168.234-.319.355-.451l.389-.567c.239-.484.353-.854.342-1.108.028-.042.005-.166-.07-.372-.303-.053-.871.237-1.705.869-.321.243-.638.504-.952.782a20.64 20.64 0 0 1-.654.617l-.086.126a.643.643 0 0 1-.365.398Zm5.421-2.443c2.11-2.226 4.241-5.225 6.391-8.998.297-.568.747-.707 1.35-.417.604.29.747.758.428 1.403-2.906 6.001-4.009 9.303-3.31 9.904.223.215 1.008-.188 2.355-1.21.513-.389 1.038-.817 1.573-1.283.478-.382.838-.706 1.082-.971.692-.606 1.643-1.59 2.853-2.952.18-.217.396-.33.651-.341.247-.047.441.009.58.166.314.307.298.713-.047 1.217-.473.601-.956 1.15-1.45 1.645-3.141 3.371-5.685 5.24-7.631 5.604-2.059.348-2.643-1.209-1.753-4.671l-.548.596c-3.522 3.883-6.159 5.64-7.913 5.272-1.557-.294-2.048-1.942-1.475-4.943-.236.301-.476.584-.72.85l-.269.324-.278.272a1.075 1.075 0 0 1-.458.196.969.969 0 0 1-.581-.166c-.132-.122-.201-.292-.205-.511a1.18 1.18 0 0 1 .123-.518c.086-.126.352-.468.796-1.028.208-.258.419-.5.634-.723.23-.336.478-.675.743-1.018a98.874 98.874 0 0 0 1.736-2.467c.195-.33.433-.722.714-1.178l.398-.514.292-.494c.316-.462.688-.532 1.115-.209.455.281.542.65.261 1.105l-.086.126-.129.19a31.387 31.387 0 0 0-.976 1.83 18.27 18.27 0 0 0-.983 2.382c-.168.47-.304.917-.408 1.34a10.842 10.842 0 0 1 1.645-1.188c1.586-.919 2.686-.814 3.301.317.137.34.203.694.199 1.061ZM30.804 139.917c.495-1.265.956-2.23 1.38-2.896.253-.413.6-.515 1.042-.305.45.246.586.586.411 1.022a1.622 1.622 0 0 0-.12.242l-.076.179-.066.233c-.14.428-.282.84-.428 1.233-.439 1.181-.823 2.26-1.152 3.238-.983 2.967-1.284 4.488-.904 4.564.754.115 1.905-.485 3.454-1.8 1.433-1.148 2.87-2.57 4.31-4.268a.95.95 0 0 1 .703-.352c.248-.046.442.009.58.166.315.308.3.714-.046 1.218-.473.601-1.279 1.484-2.416 2.649-1.595 1.654-3 2.851-4.217 3.592-1.586.919-2.826 1.042-3.722.367-.98-.733-1.073-2.308-.28-4.727-2.781 2.754-4.914 3.978-6.4 3.67-.951-.188-1.504-.891-1.658-2.107a3.319 3.319 0 0 0-.263.653l-1.059 3.44c-.327.208-.638.211-.932.01-.3-.237-.423-.599-.368-1.085.056-.487.402-1.669 1.04-3.546-.388.475-.746.909-1.076 1.3a5.583 5.583 0 0 1-.418.408l-.322.335c-.092.091-.245.156-.457.195a.932.932 0 0 1-.528-.176c-.133-.121-.201-.291-.205-.51a1.19 1.19 0 0 1 .123-.518c.086-.126.28-.364.58-.713.144-.21.277-.381.398-.514.18-.217.341-.43.485-.64a.616.616 0 0 0 .173-.252c.092-.091.197-.22.311-.388.266-.343.56-.727.883-1.154a66.652 66.652 0 0 0 2.483-3.761c.287-.42.655-.507 1.104-.262.45.246.565.572.348.979-.174.435-.332.868-.471 1.297l.086-.126c-.454 2.465-.483 4.265-.088 5.4.153.228.57.205 1.25-.069.74-.358 1.598-.958 2.576-1.801 1.314-1.198 2.631-2.671 3.952-4.42Zm26.567-2.007c.313.308.298.714-.047 1.218l-.312.388-.365.398c-.301.349-.59.66-.87.932-2.16 2.345-4.694 3.387-7.6 3.125-1.847 2.068-3.647 2.826-5.398 2.274-1.745-.515-2.51-2.057-2.294-4.625l-.495.587-1.095 1.194c-.128.098-.28.163-.457.196a.97.97 0 0 1-.58-.166c-.134-.122-.202-.292-.206-.511.002-.184.043-.356.123-.517.092-.091.21-.241.355-.452l.268-.325.27-.325a41.76 41.76 0 0 0 1.592-2.056l1.553-2.268c.33-.392.684-.458 1.062-.199.712-2.258 2.07-3.812 4.071-4.663 2.102-.906 3.555-.281 4.362 1.876.608 1.681.353 3.743-.765 6.186-.414.92-.793 1.632-1.138 2.136a6.01 6.01 0 0 0 2.229-.417c.986-.405 1.94-1.078 2.863-2.019a78.845 78.845 0 0 0 1.59-1.781.95.95 0 0 1 .703-.352c.248-.046.441.009.58.166Zm-10.169 4.376c1.142-1.532 1.893-3.193 2.254-4.982.39-1.831.184-2.928-.616-3.291l-.116-.033-.18-.076a20.822 20.822 0 0 0-.603.003c-1.358.181-2.392 1.015-3.102 2.503-.74 1.531-.69 2.968.148 4.313.512.783 1.25 1.304 2.215 1.563Zm-3.218 2.47c.7-.168 1.394-.572 2.08-1.213-.723-.341-1.33-.74-1.818-1.198-.948-.958-1.482-2.049-1.6-3.271-.703 1.925-.838 3.452-.407 4.58.398.951.98 1.319 1.745 1.102Zm32.438-10.467a.867.867 0 0 1 .65-.341c.248-.047.442.009.581.166.314.307.298.713-.047 1.217a31.377 31.377 0 0 1-2.416 2.65c-1.358 1.353-2.577 2.277-3.656 2.772-1.086.459-2.554.734-4.405.824-.865.858-1.777 1.468-2.734 1.831-1.164.437-2.164.57-3.002.397-.72-.122-1.202-.453-1.45-.992-.27-.463-.235-.964.103-1.503.339-.54.94-.945 1.805-1.217.617-.225 1.328-.34 2.133-.344l1.112.066 1.11.067a13.32 13.32 0 0 0 2.752-4.965c.51-1.78.35-2.629-.477-2.548l-.053.01c-1.139.177-2.293.759-3.463 1.747-.85.745-1.756 1.776-2.718 3.091a41.414 41.414 0 0 0-1.878 2.879l-.379.62-.335.557a10.31 10.31 0 0 1-.541.926c-.754 1.057-1.486 1.157-2.196.301-.186-.405-.117-1.407.206-3.005a2.54 2.54 0 0 1-.547.597c-.128.097-.28.162-.458.195a.94.94 0 0 1-.527-.176.585.585 0 0 1-.259-.501.941.941 0 0 1 .176-.527c.087-.126.366-.49.84-1.091a9.35 9.35 0 0 0 .71-.902l.883-1.154c.58-2.38 1.359-5.163 2.337-8.349a62.777 62.777 0 0 1 1.016-3.377c.273-.893.468-1.516.585-1.867 3.105-8.456 5.863-14.265 8.275-17.426 1.212-1.546 2.104-2.262 2.674-2.149 1.818-.267 2.624.809 2.418 3.228-.154 2.117-1.08 5.092-2.78 8.926-3.414 7.781-7.67 14.987-12.764 21.618l-.246 1.035c1.217-1.913 2.45-3.444 3.7-4.594 1.657-1.518 3.345-2.384 5.063-2.595 2.092-.172 3.057.874 2.895 3.139-.131 2.038-1.009 4.199-2.632 6.481 1.28-.204 2.5-.725 3.662-1.565a5.596 5.596 0 0 0 1.188-.992c.164-.103.32-.243.471-.417l.183-.199.139-.136a36.875 36.875 0 0 0 2.296-2.408Zm-3.4-29.909c-1.458.236-3.5 3.512-6.127 9.827-2.35 5.641-4.391 11.663-6.123 18.067 4.283-6.076 7.733-12.105 10.349-18.089 2.536-5.822 3.208-9.079 2.016-9.772.036-.006-.003-.017-.116-.033Zm-10.073 37.76c.489-.128 1.01-.372 1.566-.732-1.263-.094-2.218.085-2.867.536l-.182.199.18.076c.076.023.172.041.284.057.261.024.6-.021 1.019-.136Zm16.55-4.856c.054.283.121.545.203.786.152.228.57.205 1.25-.069.235-.117.484-.255.747-.414.157-.14.34-.339.547-.597.116-.168.234-.319.356-.451l.388-.568c.239-.484.353-.853.342-1.107.029-.042.005-.166-.07-.372-.303-.053-.871.236-1.705.869-.32.243-.638.504-.952.782-.28.272-.497.478-.654.617l-.086.126a.643.643 0 0 1-.365.398Zm5.422-2.443c2.11-2.226 4.24-5.226 6.391-8.998.297-.568.747-.707 1.35-.417.604.29.747.757.428 1.403-2.905 6.001-4.009 9.302-3.31 9.904.223.215 1.008-.189 2.355-1.21a30.042 30.042 0 0 0 1.573-1.283c.478-.383.838-.707 1.082-.972.692-.606 1.643-1.589 2.853-2.951a.868.868 0 0 1 .65-.342c.248-.046.442.009.581.166.314.308.299.714-.047 1.218a19.007 19.007 0 0 1-1.45 1.645c-3.141 3.371-5.685 5.239-7.63 5.603-2.06.349-2.644-1.208-1.754-4.671l-.548.597c-3.522 3.882-6.16 5.64-7.913 5.272-1.557-.295-2.048-1.942-1.475-4.943a14.55 14.55 0 0 1-.72.849l-.268.325-.28.272c-.127.097-.28.162-.457.196a.964.964 0 0 1-.58-.167c-.133-.121-.202-.291-.206-.51.002-.184.043-.356.123-.518.086-.126.352-.469.796-1.028.208-.259.42-.5.634-.723.23-.336.478-.675.743-1.018.496-.679 1.075-1.501 1.736-2.468.195-.329.433-.721.714-1.177l.398-.514.292-.494c.316-.462.688-.532 1.115-.209.455.281.542.649.261 1.105l-.086.126-.13.189a31.853 31.853 0 0 0-.975 1.831 18.366 18.366 0 0 0-.983 2.381 13.9 13.9 0 0 0-.408 1.34 10.88 10.88 0 0 1 1.645-1.187c1.586-.919 2.687-.814 3.301.316.137.341.203.695.199 1.062Zm31.059-4.715c-2.79 2.903-5.087 4.523-6.892 4.861-2.058.348-2.643-1.209-1.753-4.671l-.547.596c-3.522 3.883-6.264 5.769-8.225 5.66-1.387-1.535-1.807-3.196-1.263-4.982.545-1.787.957-2.908 1.239-3.364l.398-.514.292-.494c.316-.462.688-.532 1.114-.209.456.281.543.65.262 1.105l-.086.126-.13.189a32.361 32.361 0 0 0-.975 1.831c-.642 1.658-.765 3.055-.37 4.19.153.227.57.204 1.251-.07.739-.358 1.597-.958 2.574-1.8 2.571-2.313 5.166-5.765 7.786-10.357.296-.569.746-.708 1.35-.418.604.29.746.758.427 1.403-2.905 6.001-4.008 9.303-3.31 9.904.224.215 1.009-.188 2.356-1.21a29.909 29.909 0 0 0 1.573-1.283c.477-.382.838-.706 1.081-.972.693-.605 1.644-1.589 2.854-2.951a.845.845 0 0 1 .182-.199l2.457-5.954c.296-.568.747-.707 1.35-.417.604.29.746.758.428 1.403-2.906 6.001-4.009 9.303-3.311 9.904.224.215 1.009-.188 2.356-1.21a30.423 30.423 0 0 0 1.573-1.283c.478-.382.838-.706 1.081-.972.693-.605 1.644-1.589 2.854-2.951a.868.868 0 0 1 .65-.342c.248-.046.442.009.581.166.314.308.298.714-.047 1.218-.473.601-.957 1.15-1.45 1.645-3.141 3.371-5.685 5.239-7.631 5.604-1.741.289-2.434-.772-2.079-3.182Zm40.269-11.494-.156 1.513c1.112-1.49 2.459-3.006 4.038-4.547.761-1.021 1.625-1.787 2.591-2.298.611-.261 1.072-.145 1.384.346.311.491.228.927-.25 1.31a35.278 35.278 0 0 0-2.754 2.603 8.972 8.972 0 0 0-1.145 2.687c-.31 1.083-.359 1.898-.147 2.444.568 1.469 2.599.576 6.092-2.678a54.978 54.978 0 0 0 2.843-3.005c.18-.216.396-.33.651-.341a.715.715 0 0 1 .633.156c.279.314.245.723-.1 1.227a30.104 30.104 0 0 1-1.858 2.106 45.91 45.91 0 0 1-1.619 1.622c-.721.647-1.424 1.2-2.107 1.658-1.71 1.235-3.135 1.74-4.277 1.514-1.592-.288-2.289-1.567-2.091-3.838a70.987 70.987 0 0 0-2.888 3.946c-.281.456-.678.585-1.191.388-.513-.197-.727-.56-.643-1.088l.2-1.576.252-1.585a12.94 12.94 0 0 1-.773.859c-.314.278-.66.288-1.038.029-.133-.122-.201-.292-.206-.511a.947.947 0 0 1 .176-.527c.087-.126.366-.49.84-1.091.272-.308.509-.608.71-.902l.883-1.154c.638-3.05 1.151-5.49 1.541-7.321 1.677-.827 2.306-.596 1.887.691l-1.478 7.363Zm12.116-.345c.544-1.787.957-2.908 1.238-3.363l.398-.514.292-.494c.317-.462.688-.532 1.115-.209.455.281.543.649.262 1.105l-.087.126-.129.189a31.978 31.978 0 0 0-.976 1.831c-.642 1.658-.765 3.055-.369 4.189.152.228.569.205 1.25-.069.739-.358 1.597-.958 2.575-1.801 2.57-2.312 5.166-5.764 7.785-10.357.297-.568.747-.707 1.35-.417.604.289.747.757.428 1.403-2.905 6.001-4.009 9.302-3.31 9.904.223.215 1.008-.189 2.355-1.21a30.003 30.003 0 0 0 1.573-1.283c.478-.383.838-.707 1.082-.972.692-.606 1.643-1.59 2.853-2.951.18-.217.396-.331.651-.342.247-.046.441.009.58.166.314.308.298.713-.047 1.218a18.66 18.66 0 0 1-1.45 1.644c-3.141 3.372-5.685 5.24-7.631 5.604-2.059.349-2.643-1.208-1.753-4.671l-.548.597c-3.522 3.882-6.263 5.769-8.225 5.66-1.386-1.535-1.807-3.196-1.262-4.983Zm42.264-9.065c.313.308.298.713-.047 1.218a18.992 18.992 0 0 1-1.45 1.644c-3.142 3.372-5.685 5.24-7.632 5.604-2.059.349-2.643-1.208-1.753-4.671l-.548.597c-3.521 3.882-6.159 5.64-7.913 5.272-1.556-.295-2.048-1.942-1.474-4.943-.237.301-.477.584-.72.849l-.269.325-.279.272a1.072 1.072 0 0 1-.458.195.961.961 0 0 1-.58-.166c-.133-.121-.201-.292-.206-.511.003-.183.044-.356.123-.517.086-.126.352-.469.797-1.028.208-.259.419-.5.633-.723.231-.336.478-.675.744-1.018.495-.679 1.074-1.501 1.735-2.468.195-.329.433-.722.714-1.177l.398-.514.292-.494c.317-.462.688-.532 1.115-.209.455.281.543.649.262 1.105l-.087.126-.129.189a31.978 31.978 0 0 0-.976 1.831 18.44 18.44 0 0 0-.983 2.381c-.717 2.039-.877 3.626-.482 4.76.153.228.569.205 1.251-.069.738-.358 1.597-.958 2.574-1.801 2.571-2.312 5.166-5.764 7.786-10.357.296-.568.746-.707 1.35-.417.603.289.746.757.427 1.403-2.905 6.001-4.009 9.302-3.31 9.904.223.215 1.009-.189 2.356-1.21a29.994 29.994 0 0 0 1.572-1.283c.478-.383.839-.707 1.082-.972.692-.606 1.644-1.589 2.854-2.951a.868.868 0 0 1 .65-.342c.248-.046.441.009.581.166Zm17.325-3.243c.278.314.245.723-.1 1.227-.467.637-1.272 1.52-2.416 2.65l-.375.345-.418.408c-.307.314-.604.589-.889.826a17.5 17.5 0 0 1-2.276 1.634c-2 1.254-4.065 1.86-6.197 1.82-1.511-.047-2.693-.595-3.549-1.644-.723-.926-1.003-1.936-.842-3.028-.451.524-.816.922-1.095 1.193-.093.091-.245.156-.458.196a.94.94 0 0 1-.527-.176c-.133-.122-.201-.292-.205-.511-.005-.219.036-.391.122-.517.087-.126.248-.34.485-.64l.173-.252.182-.199c.144-.21.291-.403.441-.577.065-.049.25-.23.558-.544l.192-.146.226-.262.514-.481a12.258 12.258 0 0 1 3.418-4.925c1.657-1.519 3.322-2.215 4.993-2.088.741.044 1.303.305 1.685.783.878.971-.004 2.326-2.645 4.066a22.47 22.47 0 0 1-1.579.955l-.79.477-.746.415c-1.159.656-1.846 1.096-2.06 1.319-.498 1.449-.509 2.568-.031 3.357.435.761 1.203 1.149 2.305 1.162 2.505.081 5.158-1.204 7.959-3.852.785-.696 1.672-1.632 2.661-2.806a.87.87 0 0 1 .65-.341.722.722 0 0 1 .634.156Zm-7.801-3.814-.285-.056c-.106.02-.234.025-.382.016a6.281 6.281 0 0 0-1.094.315c-1.044.488-2.112 1.439-3.202 2.852l-.346.504a45.093 45.093 0 0 0 2.562-1.578 29.658 29.658 0 0 0 2.694-2.043l.053-.01Zm19.698-1.38c.495-1.264.956-2.23 1.38-2.895.253-.413.6-.515 1.042-.305.449.246.586.586.411 1.022a1.513 1.513 0 0 0-.119.242l-.077.18-.066.231c-.14.43-.282.841-.428 1.234a111.41 111.41 0 0 0-1.152 3.237c-.983 2.968-1.284 4.489-.904 4.565.754.115 1.905-.485 3.454-1.801 1.433-1.147 2.87-2.57 4.31-4.267a.95.95 0 0 1 .703-.352c.248-.046.441.009.581.166.314.308.298.713-.047 1.218-.474.601-1.279 1.484-2.416 2.649-1.595 1.654-3.001 2.851-4.217 3.592-1.586.919-2.827 1.041-3.722.367-.979-.733-1.073-2.308-.281-4.727-2.78 2.754-4.914 3.978-6.4 3.67-.95-.189-1.503-.891-1.658-2.107a3.387 3.387 0 0 0-.262.653l-1.059 3.44c-.327.208-.638.211-.932.009-.301-.236-.423-.598-.368-1.084.055-.487.402-1.669 1.039-3.546-.387.475-.745.909-1.075 1.3a5.45 5.45 0 0 1-.418.408l-.322.335c-.093.09-.245.156-.458.195a.94.94 0 0 1-.527-.176c-.133-.121-.201-.292-.205-.511a1.19 1.19 0 0 1 .122-.517c.087-.126.28-.364.581-.713.144-.21.277-.381.398-.514.18-.217.341-.43.485-.64a.609.609 0 0 0 .172-.252 2.63 2.63 0 0 0 .312-.388c.266-.343.56-.728.883-1.154a66.057 66.057 0 0 0 2.482-3.761c.288-.42.656-.508 1.105-.262.449.246.565.572.348.979-.175.435-.332.868-.471 1.297l.086-.126c-.454 2.465-.483 4.265-.088 5.4.153.228.57.205 1.251-.069.738-.358 1.597-.959 2.574-1.801 1.314-1.198 2.632-2.672 3.953-4.421Zm38.774-4.291c.314.308.299.713-.047 1.217l-1.772 1.98a31.449 31.449 0 0 1-1.821 1.715 24.153 24.153 0 0 1-2.429 1.993c-2.101 1.492-3.636 1.999-4.605 1.521-.645-.319-.855-1.049-.629-2.19.062-.451.224-1.049.488-1.794l.309-.992.395-1.118c.396-1.21.669-2.194.82-2.955.06-.268.105-.514.136-.74.045-.155.06-.267.047-.338-1.732.14-3.754 1.471-6.065 3.992a35.77 35.77 0 0 0-2.668 3.356 33.695 33.695 0 0 0-1.955 3.058c-.274.491-.654.617-1.138.378-.52-.233-.644-.704-.374-1.413l.076-.18.153-.358c.095-.274.208-.551.338-.832.286-.823.549-1.568.79-2.236.698-2.145.934-3.526.708-4.143-.579.035-1.358.474-2.335 1.316-.757.655-1.583 1.524-2.479 2.607a53.158 53.158 0 0 0-2.187 2.991c-.323.427-.639.889-.949 1.387l-.734 1.071-.627 1.051c-.172.252-.438.302-.796.149-.387-.11-.54-.338-.458-.683-.046-.248.4-1.778 1.339-4.591l-.173.252-.226.262-.259.378c-.659.783-1.142 1.331-1.45 1.645-.314.279-.66.289-1.038.03-.133-.122-.201-.292-.205-.511.002-.184.043-.356.122-.517.087-.127.37-.473.85-1.039.237-.3.459-.58.667-.839l.796-1.028c.438-.594.924-1.326 1.457-2.195l.302-.441.249-.431c.195-.33.368-.582.518-.757.597-.917 1.124-1.236 1.579-.955.33.195.446.521.348.98-.075.38-.522 1.709-1.341 3.986 2.369-3.19 4.475-5.05 6.317-5.578 2.004-.448 2.73.79 2.179 3.713 1.922-2.448 3.889-4.17 5.899-5.17 1.613-.778 2.861-.956 3.746-.536 1.045.5 1.247 1.872.605 4.117-.205.661-.545 1.585-1.019 2.773l-.252.706-.262.654c-.175.435-.307.808-.395 1.117l-.133.465a.858.858 0 0 0-.037.391c.075.206.397.164.965-.126.704-.351 1.551-.912 2.542-1.684.385-.292.784-.605 1.198-.938.278-.272.575-.547.889-.826a31.57 31.57 0 0 0 2.747-2.932.95.95 0 0 1 .704-.351c.248-.046.441.009.58.166Zm19.727-3.693c.314.308.299.713-.046 1.218-2.268 2.951-4.587 4.942-6.958 5.972-2.429 1.114-3.636.534-3.622-1.74-1.447 1.663-2.918 2.708-4.413 3.134-1.637.453-2.863.261-3.679-.575-.731-.779-.979-1.904-.742-3.377-.444.56-.824.978-1.138 1.257a1.07 1.07 0 0 1-.458.195.941.941 0 0 1-.527-.176.586.586 0 0 1-.259-.5.947.947 0 0 1 .176-.528c.087-.126.248-.34.485-.64l.173-.252.182-.2c.144-.21.291-.401.441-.576.065-.049.143-.119.236-.21.086-.125.19-.254.312-.387.336-.356.64-.688.912-.995.83-.851 1.373-1.374 1.63-1.569 1.718-1.383 3.283-2.317 4.694-2.801a13.428 13.428 0 0 1 4.087-.765c.509-.022.792.218.849.72.029.544-.208.845-.71.902-2.468.315-4.762 1.367-6.881 3.156-1.387 1.395-2.161 2.639-2.323 3.731-.146.98.218 1.552 1.091 1.719.909.16 1.994-.209 3.255-1.104 1.482-1.083 2.861-2.715 4.138-4.895a31.53 31.53 0 0 1 1.845-3.642c.288-.42.656-.507 1.105-.261.413.252.515.599.305 1.041l-.034.116-.033.116c-.296.569-.713 1.47-1.251 2.707-.633 1.51-1.103 2.715-1.411 3.615-.434 1.4-.097 1.831 1.011 1.294.44-.192.949-.507 1.526-.945.449-.34.895-.698 1.338-1.074a17.783 17.783 0 0 0 1.951-1.904c.278-.272.554-.561.826-.868.214-.224.426-.465.634-.723a.868.868 0 0 1 .65-.342.717.717 0 0 1 .633.156Zm16.982.008c-2.79 2.903-5.087 4.523-6.892 4.86-2.059.35-2.643-1.207-1.753-4.67l-.548.597c-3.521 3.882-6.263 5.769-8.225 5.66-1.386-1.535-1.806-3.196-1.262-4.983.545-1.787.957-2.908 1.238-3.363l.399-.514.292-.495c.316-.462.688-.531 1.114-.208.456.28.543.649.262 1.105l-.086.126-.13.188a31.454 31.454 0 0 0-.975 1.831c-.642 1.659-.765 3.055-.37 4.19.153.228.569.205 1.251-.07.738-.358 1.597-.958 2.574-1.8 2.571-2.312 5.166-5.765 7.786-10.357.296-.568.746-.708 1.35-.418.603.29.746.758.427 1.404-2.905 6-4.009 9.302-3.31 9.904.223.214 1.009-.19 2.356-1.21a29.799 29.799 0 0 0 1.572-1.284c.478-.382.839-.706 1.082-.971.692-.606 1.644-1.59 2.854-2.952a.839.839 0 0 1 .182-.199l2.457-5.953c.296-.569.746-.708 1.35-.418.604.29.746.758.428 1.404-2.906 6-4.009 9.302-3.311 9.904.224.214 1.009-.19 2.356-1.21a30.174 30.174 0 0 0 1.573-1.284c.477-.382.838-.706 1.081-.971.693-.606 1.644-1.59 2.854-2.952a.868.868 0 0 1 .65-.341c.248-.047.441.009.581.166.314.307.298.713-.047 1.217-.474.602-.957 1.15-1.45 1.645-3.142 3.372-5.685 5.24-7.631 5.604-1.741.289-2.434-.772-2.079-3.182ZM294.415 3.8c-1.095 2.267-2.154 5.015-3.178 8.245-.77 2.26-1.557 5.012-2.361 8.256-1.824 7.07-3.579 15.374-5.266 24.914-.508 3.08-1.011 6.05-1.506 8.91a127.514 127.514 0 0 1-.394 2.677c-.102.616-.143.977-.123 1.081-.125.783-.579 1.112-1.362.988-.835-.115-1.191-.564-1.066-1.347 2.21-15.444 4.51-28.083 6.901-37.917.847-3.306 1.688-6.203 2.524-8.693 1.099-3.407 2.2-6.218 3.305-8.432.193-.416.474-.658.841-.727.357-.121.717-.08 1.081.123.354.15.591.405.712.762s.085.744-.108 1.16Zm-16.307 66.373c-1.32-.675-1.735-1.737-1.247-3.185.404-1.323 1.225-2.155 2.463-2.495.472-.089.847.03 1.125.359.226.337.207.666-.059.987.501.07.806.392.914.969.098.524.018 1.109-.242 1.754-.301.708-.694 1.215-1.179 1.523-.528.37-1.119.4-1.775.088Zm1.363-3.592c-.095.072-.18.197-.256.374l-.319.466c-.204.364-.238.615-.104.752l.094.064c.176.076.326-.142.447-.653l.054-.58c.013-.22.041-.36.084-.423Z"/></svg>